<?xml version="1.0" encoding="UTF-8"?>
<svg version="1.1" xmlns="http://www.w3.org/2000/svg" width="304" height="296">
<path d="M0 0 C100.32 0 200.64 0 304 0 C304 97.68 304 195.36 304 296 C203.68 296 103.36 296 0 296 C0 198.32 0 100.64 0 0 Z " fill="#FDFDFD" transform="translate(0,0)"/>
<path d="M0 0 C9.57 0 19.14 0 29 0 C29 44.88 29 89.76 29 136 C36.92 136 44.84 136 53 136 C53 91.12 53 46.24 53 0 C62.9 0 72.8 0 83 0 C83 44.88 83 89.76 83 136 C84.65 136.33 86.3 136.66 88 137 C89.1875 138.7578125 89.1875 138.7578125 90 141.125 C90.31453125 142.01703125 90.6290625 142.9090625 90.953125 143.828125 C91.29859375 144.87484375 91.6440625 145.9215625 92 147 C92.45134939 148.28708238 92.90457124 149.5735092 93.359375 150.859375 C93.8245336 152.19735562 94.28808282 153.53589687 94.75 154.875 C94.97300781 155.51711426 95.19601562 156.15922852 95.42578125 156.82080078 C96.52495445 160.1105432 97 162.47860255 97 166 C92.38 166 87.76 166 83 166 C83.00222061 167.08772202 83.00444122 168.17544403 83.00672913 169.29612732 C83.02695978 179.52353511 83.04197177 189.75093886 83.05181217 199.97836208 C83.05704119 205.23696664 83.06413918 210.4955551 83.07543945 215.75415039 C83.08626766 220.82453127 83.09227669 225.89489662 83.09487724 230.96528816 C83.09673161 232.90426948 83.10035245 234.84324991 83.10573006 236.78222466 C83.1129396 239.4882176 83.11399098 242.19414556 83.11352539 244.90014648 C83.11712067 245.71006546 83.12071594 246.51998444 83.12442017 247.35444641 C83.11405216 252.88594784 83.11405216 252.88594784 82 254 C79.9394469 254.09993532 77.8754741 254.13080906 75.8125 254.1328125 C74.55695313 254.13410156 73.30140625 254.13539063 72.0078125 254.13671875 C71.35071289 254.13462402 70.69361328 254.1325293 70.01660156 254.13037109 C68.00838665 254.12502234 66.00039541 254.13031691 63.9921875 254.13671875 C62.10886719 254.13478516 62.10886719 254.13478516 60.1875 254.1328125 C59.02605469 254.13168457 57.86460937 254.13055664 56.66796875 254.12939453 C54 254 54 254 53 253 C52.90485408 250.29161914 52.87445068 247.60881487 52.88647461 244.90014648 C52.88632858 244.05143982 52.88618256 243.20273315 52.8860321 242.32830811 C52.88673152 239.50921109 52.89452522 236.69017929 52.90234375 233.87109375 C52.90420783 231.92196183 52.90563178 229.97282945 52.90663147 228.0236969 C52.91045745 222.88293168 52.92028841 217.74219453 52.93133545 212.60144043 C52.94154785 207.35994852 52.94612872 202.1184521 52.95117188 196.87695312 C52.96191061 186.58462108 52.97950805 176.29231726 53 166 C45.08 166 37.16 166 29 166 C29.00523682 168.63025146 29.01047363 171.26050293 29.01586914 173.97045898 C29.0324043 182.63975594 29.04347092 191.30905357 29.05181217 199.97836208 C29.05704119 205.23696664 29.06413918 210.4955551 29.07543945 215.75415039 C29.08626766 220.82453127 29.09227669 225.89489662 29.09487724 230.96528816 C29.09673161 232.90426948 29.10035245 234.84324991 29.10573006 236.78222466 C29.1129396 239.4882176 29.11399098 242.19414556 29.11352539 244.90014648 C29.11712067 245.71006546 29.12071594 246.51998444 29.12442017 247.35444641 C29.11405216 252.88594784 29.11405216 252.88594784 28 254 C18.76 254 9.52 254 0 254 C0 224.96 0 195.92 0 166 C-4.62 166 -9.24 166 -14 166 C-13.35837938 155.52019661 -9.19325146 145.52677306 -5 136 C-3.35 136 -1.7 136 0 136 C0 91.12 0 46.24 0 0 Z " fill="#353535" transform="translate(173,28)"/>
<path d="M0 0 C0.91475098 0.00241699 1.82950195 0.00483398 2.77197266 0.00732422 C13.06077975 0.28393421 22.72635742 3.50289548 30.2890625 10.796875 C43.15716456 25.71067534 41.96470573 41.06581936 41.875 59.75 C41.86997456 61.57877482 41.8654135 63.40755097 41.86132812 65.23632812 C41.85126442 69.67844612 41.83167464 74.12037505 41.8125 78.5625 C32.2425 78.5625 22.6725 78.5625 12.8125 78.5625 C12.78671875 75.58863281 12.7609375 72.61476563 12.734375 69.55078125 C12.69594205 66.66469938 12.65078582 63.77879542 12.60498047 60.89282227 C12.57678739 58.88997924 12.55556458 56.8870253 12.54150391 54.8840332 C12.52005146 52.00153893 12.47338944 49.12037591 12.421875 46.23828125 C12.42064636 45.34538895 12.41941772 44.45249664 12.41815186 43.532547 C12.32034325 39.36351756 12.16416382 37.12172446 9.89941406 33.52026367 C6.62453468 30.44805289 4.42274022 30.30496354 0 30.125 C-1.03769531 30.06441406 -2.07539062 30.00382812 -3.14453125 29.94140625 C-6.69317113 30.66571144 -7.93599345 31.98250582 -10.14031613 34.7868576 C-11.93087664 37.82299599 -11.80754502 40.60523837 -11.80223083 44.07714844 C-11.80791409 44.81308102 -11.81359735 45.5490136 -11.81945282 46.30724716 C-11.83232782 48.76270607 -11.80959277 51.21650716 -11.78686523 53.671875 C-11.78872986 55.43640488 -11.79276774 57.2009336 -11.79881287 58.9654541 C-11.80878399 63.75069928 -11.78762268 68.5353517 -11.76033282 73.32051086 C-11.73648984 78.33052418 -11.73944766 83.34052599 -11.73902893 88.35058594 C-11.73440154 96.76377384 -11.71076478 105.17673537 -11.67456055 113.58984375 C-11.63282749 123.3135507 -11.61524561 133.03705381 -11.6119408 142.76084518 C-11.60833934 153.11703137 -11.5894613 163.47314433 -11.56482053 173.82929993 C-11.5585956 176.81161529 -11.55495694 179.79392508 -11.55178642 182.77624512 C-11.5458791 187.46468351 -11.52954713 192.15297671 -11.50518227 196.84135437 C-11.4977513 198.561039 -11.49367092 200.28074189 -11.49320221 202.0004425 C-11.49194129 204.34972782 -11.47837101 206.69863252 -11.46165466 209.04785156 C-11.45700416 210.36190979 -11.45235365 211.67596802 -11.44756222 213.02984619 C-11.18608926 216.58166332 -10.6521087 219.31779698 -9.1875 222.5625 C-5.98049911 223.6315003 -3.61757931 223.69582529 -0.25 223.6875 C0.79027344 223.69007813 1.83054688 223.69265625 2.90234375 223.6953125 C6.47723026 223.60948399 6.47723026 223.60948399 9.8125 222.5625 C12.40422063 217.9076833 12.1595274 213.06843871 12.2265625 207.88671875 C12.24592865 206.9615596 12.2652948 206.03640045 12.2852478 205.08320618 C12.34485254 202.13889683 12.39135248 199.19454798 12.4375 196.25 C12.47569736 194.24933225 12.51475012 192.24868064 12.5546875 190.24804688 C12.65053841 185.3529962 12.73464 180.45786855 12.8125 175.5625 C16.78180989 175.53784119 20.75109034 175.51965977 24.72045898 175.50756836 C26.07170386 175.50252943 27.42294326 175.49569823 28.77416992 175.48706055 C30.71270434 175.47497581 32.651278 175.46980172 34.58984375 175.46484375 C35.75765381 175.45960693 36.92546387 175.45437012 38.12866211 175.44897461 C40.8125 175.5625 40.8125 175.5625 41.8125 176.5625 C41.92635153 179.2832645 41.97670167 181.97756294 41.98046875 184.69921875 C41.98546135 185.94575981 41.98546135 185.94575981 41.99055481 187.21748352 C41.99563441 188.98881476 41.99796282 190.76015563 41.99780273 192.53149414 C41.99995449 195.19369343 42.01800025 197.85545423 42.03710938 200.51757812 C42.09328422 216.61625101 42.04845794 230.22955088 30.7734375 242.84375 C21.39985315 251.97873402 12.30857055 253.99417212 -0.375 254.125 C-1.9074939 254.14723633 -1.9074939 254.14723633 -3.47094727 254.16992188 C-13.41197863 254.03443934 -22.07039285 250.68958202 -29.19140625 243.5546875 C-37.2564811 234.79153067 -41.5072955 226.67555913 -41.45492554 214.49221802 C-41.45945665 213.70854508 -41.46398776 212.92487215 -41.46865618 212.11745155 C-41.48125746 209.50678827 -41.4796826 206.89633475 -41.47802734 204.28564453 C-41.48401521 202.40761041 -41.49082135 200.52957874 -41.49838257 198.65155029 C-41.51602208 193.56060057 -41.52073705 188.46971812 -41.52201414 183.37874079 C-41.52343729 180.19577367 -41.52770998 177.01282357 -41.53300858 173.82986069 C-41.55150107 162.7190823 -41.55968004 151.60835186 -41.55810547 140.49755859 C-41.55690382 130.15070634 -41.57801276 119.8040626 -41.6095928 109.45726311 C-41.63576504 100.56447595 -41.64647239 91.67175687 -41.64519465 82.7789315 C-41.64468536 77.47178999 -41.65035067 72.16483391 -41.67155075 66.85773087 C-41.69094939 61.86553508 -41.6910464 56.87370135 -41.67651749 51.88149261 C-41.67443042 50.05339655 -41.67912418 48.22527773 -41.6912384 46.39722061 C-41.80074979 28.72170606 -41.80074979 28.72170606 -37.1875 21.5625 C-36.5275 20.49 -35.8675 19.4175 -35.1875 18.3125 C-34.5275 17.405 -33.8675 16.4975 -33.1875 15.5625 C-32.383125 14.3559375 -32.383125 14.3559375 -31.5625 13.125 C-22.85613034 3.73128537 -12.57769284 -0.03490572 0 0 Z " fill="#343434" transform="translate(102.1875,27.4375)"/>
<path d="M0 0 C5.30076254 2.12030502 7.48352889 3.96705778 10 9 C10.54317573 13.9509132 10.52241949 17.89488185 8.375 22.4375 C6 25 6 25 0 28 C0 18.76 0 9.52 0 0 Z " fill="#F3F3F3" transform="translate(0,72)"/>
<path d="M0 0 C1.65 0.33 3.3 0.66 5 1 C5 2.32 5 3.64 5 5 C3.02 5.99 3.02 5.99 1 7 C0.34 6.34 -0.32 5.68 -1 5 C-0.625 2.375 -0.625 2.375 0 0 Z " fill="#F1F1F1" transform="translate(73,2)"/>
</svg>
